<svg xmlns="http://www.w3.org/2000/svg" viewBox="0 0 800 600">
  <rect width="800" height="600" fill="#f2ede4"/>
  <rect x="300" y="60" width="200" height="420" rx="28" fill="#181a1f"/>
  <rect x="312" y="92" width="176" height="356" rx="10" fill="#faf7f2"/>
  <rect x="330" y="112" width="100" height="14" rx="7" fill="#c2491d"/>
  <rect x="330" y="140" width="140" height="8" rx="4" fill="#e3dccf"/>
  <rect x="330" y="156" width="120" height="8" rx="4" fill="#e3dccf"/>
  <rect x="330" y="184" width="140" height="64" rx="10" fill="#1d6a5e" opacity="0.85"/>
  <rect x="344" y="200" width="80" height="9" rx="4" fill="#faf7f2"/>
  <rect x="344" y="218" width="56" height="9" rx="4" fill="#faf7f2" opacity="0.6"/>
  <rect x="330" y="262" width="66" height="56" rx="10" fill="#c2491d" opacity="0.18"/>
  <rect x="404" y="262" width="66" height="56" rx="10" fill="#c2491d" opacity="0.18"/>
  <rect x="330" y="332" width="140" height="10" rx="5" fill="#e3dccf"/>
  <rect x="330" y="352" width="110" height="10" rx="5" fill="#e3dccf"/>
  <rect x="330" y="386" width="140" height="38" rx="19" fill="#c2491d"/>
  <circle cx="400" cy="464" r="9" fill="#4f5763"/>
  <text x="400" y="540" font-family="Consolas, monospace" font-size="16" fill="#4f5763" text-anchor="middle">KidneyMate — app UI</text>
</svg>
