<svg xmlns="http://www.w3.org/2000/svg" viewBox="0 0 800 600">
  <rect width="800" height="600" fill="#f2ede4"/>
  <path d="M0 420 Q200 340 400 400 T800 360 V600 H0 Z" fill="#1d6a5e" opacity="0.25"/>
  <path d="M0 470 Q220 400 430 450 T800 430 V600 H0 Z" fill="#1d6a5e" opacity="0.35"/>
  <path d="M120 120 Q260 80 380 150 Q520 230 660 170" fill="none" stroke="#c2491d" stroke-width="2" stroke-dasharray="7 7" opacity="0.7"/>
  <path d="M100 200 Q260 150 400 220 Q540 290 700 240" fill="none" stroke="#c2491d" stroke-width="2" stroke-dasharray="7 7" opacity="0.45"/>
  <path d="M90 280 Q260 230 410 290 Q560 350 710 310" fill="none" stroke="#c2491d" stroke-width="2" stroke-dasharray="7 7" opacity="0.3"/>
  <g fill="#c2491d">
    <path d="M250 240 q-16 -26 0 -40 q16 14 0 40 Z" transform="rotate(180 250 220)"/>
    <circle cx="250" cy="206" r="6" fill="#faf7f2"/>
    <path d="M520 300 q-16 -26 0 -40 q16 14 0 40 Z" transform="rotate(180 520 280)"/>
    <circle cx="520" cy="266" r="6" fill="#faf7f2"/>
  </g>
  <rect x="48" y="48" width="180" height="92" rx="10" fill="#faf7f2" stroke="#e3dccf"/>
  <rect x="64" y="66" width="90" height="10" rx="5" fill="#c2491d"/>
  <rect x="64" y="88" width="140" height="8" rx="4" fill="#e3dccf"/>
  <rect x="64" y="104" width="120" height="8" rx="4" fill="#e3dccf"/>
  <text x="400" y="560" font-family="Consolas, monospace" font-size="16" fill="#4f5763" text-anchor="middle">VAS — soil &amp; spatial data portal</text>
</svg>
