<svg xmlns="http://www.w3.org/2000/svg" viewBox="0 0 800 600">
  <rect width="800" height="600" fill="#f2ede4"/>
  <rect x="80" y="70" width="640" height="430" rx="16" fill="#faf7f2" stroke="#e3dccf"/>
  <rect x="110" y="100" width="160" height="14" rx="7" fill="#c2491d"/>
  <rect x="110" y="150" width="180" height="90" rx="10" fill="#c2491d" opacity="0.14"/>
  <rect x="310" y="150" width="180" height="90" rx="10" fill="#1d6a5e" opacity="0.18"/>
  <rect x="510" y="150" width="180" height="90" rx="10" fill="#c2491d" opacity="0.14"/>
  <rect x="128" y="170" width="70" height="11" rx="5" fill="#c2491d" opacity="0.7"/>
  <rect x="128" y="195" width="100" height="20" rx="5" fill="#181a1f" opacity="0.75"/>
  <rect x="328" y="170" width="70" height="11" rx="5" fill="#1d6a5e" opacity="0.8"/>
  <rect x="328" y="195" width="100" height="20" rx="5" fill="#181a1f" opacity="0.75"/>
  <rect x="528" y="170" width="70" height="11" rx="5" fill="#c2491d" opacity="0.7"/>
  <rect x="528" y="195" width="100" height="20" rx="5" fill="#181a1f" opacity="0.75"/>
  <g fill="#c2491d" opacity="0.85">
    <rect x="130" y="380" width="34" height="70" rx="5"/>
    <rect x="180" y="350" width="34" height="100" rx="5"/>
    <rect x="230" y="395" width="34" height="55" rx="5"/>
    <rect x="280" y="320" width="34" height="130" rx="5"/>
    <rect x="330" y="365" width="34" height="85" rx="5"/>
  </g>
  <path d="M430 430 L500 380 L560 405 L630 330 L690 350" fill="none" stroke="#1d6a5e" stroke-width="4" stroke-linecap="round" stroke-linejoin="round"/>
  <circle cx="630" cy="330" r="7" fill="#1d6a5e"/>
  <text x="400" y="545" font-family="Consolas, monospace" font-size="16" fill="#4f5763" text-anchor="middle">RetailSenseAI — analytics dashboard</text>
</svg>
