<svg xmlns="http://www.w3.org/2000/svg" viewBox="0 0 800 600">
  <rect width="800" height="600" fill="#181a1f"/>
  <rect x="170" y="80" width="460" height="280" rx="12" fill="#faf7f2"/>
  <rect x="210" y="120" width="200" height="20" rx="10" fill="#c2491d"/>
  <rect x="210" y="165" width="320" height="11" rx="5" fill="#e3dccf"/>
  <rect x="210" y="188" width="280" height="11" rx="5" fill="#e3dccf"/>
  <rect x="210" y="240" width="120" height="80" rx="10" fill="#1d6a5e" opacity="0.85"/>
  <rect x="350" y="240" width="120" height="80" rx="10" fill="#c2491d" opacity="0.2"/>
  <ellipse cx="400" cy="565" rx="330" ry="26" fill="#faf7f2" opacity="0.06"/>
  <circle cx="400" cy="430" r="34" fill="#c2491d"/>
  <path d="M352 545 Q400 470 448 545 Z" fill="#c2491d"/>
  <path d="M448 500 L505 460" stroke="#c2491d" stroke-width="13" stroke-linecap="round"/>
  <circle cx="660" cy="500" r="18" fill="#faf7f2" opacity="0.25"/>
  <circle cx="710" cy="520" r="18" fill="#faf7f2" opacity="0.18"/>
  <circle cx="120" cy="510" r="18" fill="#faf7f2" opacity="0.22"/>
  <text x="400" y="50" font-family="Consolas, monospace" font-size="16" fill="#faf7f2" opacity="0.7" text-anchor="middle">FORGE — pitch night</text>
</svg>
